<?xml version="1.0" encoding="utf-8"?>
<!-- Generator: Adobe Illustrator 22.1.0, SVG Export Plug-In . SVG Version: 6.00 Build 0)  -->
<svg version="1.1" id="レイヤー_1" xmlns="http://www.w3.org/2000/svg" xmlns:xlink="http://www.w3.org/1999/xlink" x="0px"
	 y="0px" viewBox="0 0 60 60" style="enable-background:new 0 0 60 60;" xml:space="preserve">
<style type="text/css">
	.st0{fill:#3F3B3A;}
</style>
<path class="st0" d="M22.5,37.5c-3.31,0-6,2.69-6,6s2.69,6,6,6s6-2.69,6-6S25.81,37.5,22.5,37.5z M22.5,46.5c-1.66,0-3-1.35-3-3
	s1.34-3,3-3s3,1.35,3,3S24.16,46.5,22.5,46.5z M40.5,37.5c-3.31,0-6,2.69-6,6s2.69,6,6,6s6-2.69,6-6S43.81,37.5,40.5,37.5z
	 M40.5,46.5c-1.66,0-3-1.35-3-3s1.34-3,3-3s3,1.35,3,3S42.16,46.5,40.5,46.5z M21,18v3h24v12H18V9H9v3h6v24h33V18H21z"/>
</svg>