<?xml version="1.0" encoding="utf-8"?>
<!-- Generator: Adobe Illustrator 24.2.3, SVG Export Plug-In . SVG Version: 6.00 Build 0)  -->
<svg version="1.1" xmlns="http://www.w3.org/2000/svg" xmlns:xlink="http://www.w3.org/1999/xlink" x="0px" y="0px"
	 viewBox="0 0 1172.27 572.7" style="enable-background:new 0 0 1172.27 572.7;" xml:space="preserve">
<style type="text/css">
	.st0{display:none;}
	.st1{display:inline;}
	.st2{fill:#FFFFFF;}
	.st3{fill-rule:evenodd;clip-rule:evenodd;fill:#FFFFFF;}
	.st4{opacity:0.3;}
	.st5{fill:#231815;}
	.st6{fill:#EAE4D0;}
	.st7{fill:#F7F7F8;}
	.st8{fill:none;stroke:#231815;stroke-width:1.4173;stroke-linecap:round;stroke-linejoin:round;stroke-miterlimit:10;}
	.st9{fill:none;stroke:#CDCCD4;stroke-width:1.4173;stroke-linecap:round;stroke-linejoin:round;stroke-miterlimit:10;}
	.st10{fill:#CDCCD4;}
	.st11{fill:#7B788C;}
	.st12{fill:#5A566F;}
</style>
<g id="レイヤー_1">
	<g id="wihite" class="st0">
		<g class="st1">
			<path id="要素_-_3_1_" class="st2" d="M1162.27,562.7H10V10h1152.27V562.7z M31.37,541.68H1140.9V31.02H31.37V541.68z"/>
		</g>
		<g class="st1">
			<rect id="要素_-_1_1_" x="189.57" y="387.28" class="st3" width="235.06" height="21.37"/>
			<g>
				<path class="st2" d="M719.06,224.02c6.59,0,11.15-1.36,13.95-4.16c2.44-2.44,4.45-6.16,6.16-11.37c1.63-5,2.42-9.09,2.42-12.52
					c0-4.49-2.31-12.02-17.82-12.02c-4.16,0-10.07,1.67-14.63,9.61c-3.22,5.61-4.85,12.09-4.85,19.27
					C704.28,216.2,705.72,224.02,719.06,224.02z"/>
				<path class="st2" d="M975.65,303.04c-6.19,5.29-12.5,10.57-18.73,15.7c-10.38,8.46-17.98,12.96-23.5,15.22
					c3.01-5.78,5.51-11.89,7.47-18.26c2.97-9.67,4.47-18.89,4.47-27.38c0-5.93-1.19-11.59-3.56-16.83
					c-2.02-4.48-5.4-9.72-10.3-15.96c2.47-3.5,5.1-7.25,7.87-11.22c4.03-5.77,5.98-10.64,5.98-14.89c0-2.29-0.85-7.8-8.74-9.44
					l-0.34-0.07l-13.44-0.57c-7.07,0-12.72,3.44-16.32,9.95c-3.2,5.78-4.82,12.15-4.82,18.94c0,1.23,0.27,2.85,1.29,4.56
					c-4.82,8.1-10.07,15.92-15.64,23.29c-5.41,7.22-12.11,15.21-20.03,23.87l-0.47,0.55l-2.95,2.57
					c-14.22,12.42-26.94,21.48-37.81,26.91c-10.59,5.3-21.2,7.98-31.55,7.98c-4.83,0-8.1-1.99-10.32-6.28
					c-1.52-2.89-2.36-6.76-2.53-11.52l3.13-1.34c15.76-6.45,26.9-12.13,34.08-17.37c14.01-10.21,21.11-22.44,21.11-36.36
					c0-16.31-9.37-25.29-26.39-25.29c-16.99,0-32.09,8.42-44.86,25.03c-7.98,10.37-13.43,21.81-16.35,34.16l-4.47,4.17
					c-5.47,5.1-11.01,10.09-16.43,14.79c-15.94,13.46-21.73,15.36-23.47,15.56c-0.37-0.61-1.3-2.77-1.3-8.98
					c0-7.2,1.17-15.9,3.48-25.85c2.35-10.14,6.41-23.87,12.06-40.81l4.64-13.92h-32.06l-1.07,2.71
					c-5.58,14.13-10.01,27.9-13.17,40.93c-0.74,3.06-1.39,6.04-1.97,8.96l-5.76,7.04c-2.96,3.62-5.72,6.16-8.19,7.55
					c-2.32,1.31-4.8,1.94-7.58,1.94c-4.85,0-10.49-3.38-16.78-10.06c3.77-8.37,6.8-16.84,9.02-25.22
					c2.48-9.35,3.74-17.53,3.74-24.32c0-7.43-4.78-10.08-9.25-10.08c-5.75,0-10.99,1.06-15.54,3.12
					c-4.32,1.89-7.88,7.83-11.88,19.84c-3.54,10.62-5.33,20.05-5.33,28.04v0.29l1,7.26c-3.99,10.91-8.33,19.61-12.9,25.87
					c-4.05,5.54-7.82,8.48-10.92,8.48c-3.56,0-5.68-7.29-5.68-19.51c0-11.77,1.82-25.1,5.43-39.7c0.91-3.99,3.49-13.5,7.68-28.26
					l1.67-5.87l-31.89,2.31l-0.89,2.72c-4.28,13.01-7.58,25.56-9.82,37.31c-0.92,4.81-1.64,9.61-2.19,14.37l-3.89,3.4
					c-14.22,12.42-26.94,21.48-37.81,26.91c-10.59,5.3-21.2,7.98-31.55,7.98c-4.83,0-8.1-1.99-10.32-6.28
					c-1.52-2.89-2.36-6.76-2.53-11.52l3.13-1.34c15.76-6.45,26.9-12.13,34.08-17.37c14.01-10.21,21.11-22.44,21.11-36.36
					c0-16.31-9.37-25.29-26.39-25.29c-11.91,0-22.88,4.15-32.77,12.34l0.6-0.71c-10.88,1.55-25.92-12.57-26.66-13.27l0.03-0.04
					l-2.76-2.48c-3.57-3.21-6.65-6.2-9.07-8.79c-0.99-1.11-2.02-2.3-3.09-3.58c6.25-18.86,9.42-34.37,9.42-46.11
					c0-4.5-0.68-7.33-2.21-9.21c-1.7-2.08-4.55-3.08-8.7-3.08c-8.94,0-11.95,0.88-13.58,1.66c-2.85,1.35-5.08,4.34-7.04,9.48
					c-4.75,13.3-7.16,25.7-7.16,36.83c0,2.11,0.21,4.29,0.63,6.47c0.32,1.68,0.77,3.3,1.34,4.83c-7.93,27.07-17.82,51.99-29.4,74.09
					c-16.59,31.49-24.58,33.94-26.63,33.94c-1.7,0-2.97-2.89-3.57-4.61c-1.58-4.49-2.38-11.27-2.38-20.15
					c0-7.01,0.64-16.73,1.91-28.87c1.27-12.16,2.65-22.09,4.08-29.45l7.98-38.82c0.08-0.34,0.74-2.64,4.92-16.65
					c2.14-7.01,3.23-13.29,3.23-18.67c0-5.36-2.9-7.7-4.63-8.62c-2.24-1.19-5.73-1.74-10.98-1.74c-6.86,0-11.47,1.41-14.09,4.31
					c-1.84,2.03-3.83,6.36-5.92,24.07c-1.42,12.06-7.22,29.85-17.23,52.85c-10.07,23.12-21.31,43.47-33.42,60.45
					c-16.21,22.51-25.05,25.87-28.88,25.87c-0.8,0-2.92,0-2.92-7.07c0-3.72,1.07-10.34,3.19-19.66c2.14-9.44,3.79-16.43,4.88-20.63
					l10-34.3c9.43-33.14,14.01-55.14,14.01-67.25c0-16.71-8.22-19.21-13.12-19.21c-5.94,0-13.9,3.61-24.32,11.02
					c-9.74,6.93-20.89,16.66-33.17,28.94l-1.87,1.87l7.85,23.53l9.23-8.07c6.3-5.4,12.09-9.91,17.19-13.4
					c1.68-1.15,3.02-2.02,4.08-2.67c-0.32,3.24-1.13,7.05-2.45,11.39l-20.18,71.3c-4.15,14.15-6.25,27.12-6.25,38.53
					c0,10.46,2.51,19.22,7.45,26.02c5.25,7.22,12.09,10.89,20.32,10.89c10.66,0,21.87-5.41,33.33-16.08
					c8.33-7.76,17.21-18.92,26.4-33.17c2.81-4.38,5.55-8.87,8.19-13.43c-0.02,1.58-0.03,3.35-0.03,5.32
					c0,13.49,1.56,25.01,4.65,34.29c5.24,15.31,14.23,23.08,26.72,23.08c11.27,0,22.81-7.26,34.34-21.62
					c8.46-10.85,17.28-26.18,26.23-45.57c5.18-11.28,11.26-26.26,18.1-44.54l1.02-2.75c0.01,0.01,0.03,0.04,0.05,0.06l-0.07,0.03
					c4,5.64,30.97,20.23,34.06,21.88c-9.68,14.84-14.58,31.65-14.58,50.07c0,10.92,2.78,20.85,8.26,29.52
					c5.88,9.3,14.58,14.02,25.87,14.02c27.06,0,55.23-10.26,83.74-30.48c1.26,6.77,3.51,12.56,6.75,17.28
					c5.61,8.21,13.4,12.37,23.16,12.37c18.3,0,33.79-12.07,46.09-35.91c9.12,7.87,18.8,11.85,28.85,11.85
					c6.82,0,13.1-1.6,18.71-4.74c0.28,4.81,0.77,8.67,1.46,11.66c3.37,14.62,11.49,17.69,17.71,17.69c8.98,0,19.46-3.63,32.04-11.1
					c9.18-5.44,17.32-11.51,24.26-18.07c1.37,5.49,3.56,10.66,6.58,15.43c5.88,9.3,14.58,14.02,25.87,14.02
					c27.52,0,48.85-5.46,77.85-26.36c0,0,17.96-14.59,22.41-19.33c4.45-4.74,8.28-9.13,11.46-13.14
					c4.62-5.73,10.93-14.47,18.79-26.03c0.09,0.32,0.17,0.64,0.23,0.96c0.5,2.48,0.75,5.08,0.75,7.73c0,6.64-2.19,15.81-6.5,27.25
					c-4.65,12.34-7.44,14.79-8.05,15.2c-1.3-0.03-3.71-0.24-8.06-1.03c-4.37-0.79-7.69-1.18-10.16-1.18c-2.42,0-6.84,0.92-9.35,7.09
					c-1.42,3.5-2.11,8.36-2.11,14.88c0,4.71,1.35,8.13,4.03,10.17c2.39,1.83,5.98,2.68,11.31,2.68c5.84,0,10.88-0.51,14.98-1.5
					c3.43-0.84,6.67-2.04,9.65-3.58c5.96,2.3,10.86,3.43,14.92,3.43c6.28,0,13.3-2.06,21.46-6.29c7.63-3.95,17.44-10.3,29.32-18.98
					l5.75-4.6v-34.82L975.65,303.04z M796.17,275.45c5.39-6.42,10.52-9.67,15.25-9.67c2.09,0,2.09,0.31,2.09,1.81
					c0,4.17-2.92,8.69-8.68,13.43c-4.76,3.92-10.83,7.54-18.1,10.81C788.97,285.74,792.12,280.26,796.17,275.45z M480.95,275.45
					c5.39-6.42,10.52-9.67,15.25-9.67c2.09,0,2.09,0.31,2.09,1.81c0,4.17-2.92,8.69-8.68,13.43c-4.76,3.92-10.83,7.54-18.1,10.81
					C473.75,285.74,476.91,280.26,480.95,275.45z"/>
			</g>
		</g>
	</g>
</g>
<g id="レイヤー_2">
	<g>
		<g>
			<g>
				<g class="st4">
					<path class="st5" d="M221.08,540.02c-19.46,0-35.23-9.16-35.23-20.46V53.88c0-11.3,15.77-20.46,35.23-20.46h546.53
						c19.46,0,35.23,9.16,35.23,20.46v465.68c0,11.3-15.77,20.46-35.23,20.46H221.08z"/>
				</g>
				<g>
					<path class="st6" d="M220.23,539.59c-19.46,0-35.23-9.16-35.23-20.46V53.46C185,42.16,200.77,33,220.23,33h546.53
						C786.23,33,802,42.16,802,53.46v465.68c0,11.3-15.77,20.46-35.23,20.46H220.23z"/>
				</g>
			</g>
			<rect x="228.91" y="69.05" class="st7" width="529.18" height="434.49"/>
			<g>
				<g>
					<g class="st4">
						<path class="st8" d="M689.45,61.43c0-5.29-7.38-9.58-16.49-9.58H315.76c-9.11,0-16.49,4.29-16.49,9.58v5.43
							c0,5.29,7.38,9.58,16.49,9.58h59.5c6.68,0,12.7,2.34,15.25,5.93l3.8,5.35c2.54,3.59,8.57,5.93,15.25,5.93h169.6
							c6.68,0,12.7-2.34,15.25-5.93l3.8-5.35c2.54-3.59,8.57-5.93,15.25-5.93h59.51c9.11,0,16.49-4.29,16.49-9.58V61.43z"/>
					</g>
					<g>
						<path class="st9" d="M688.6,61.01c0-5.29-7.38-9.58-16.49-9.58H314.91c-9.11,0-16.49,4.29-16.49,9.58v5.43
							c0,5.29,7.38,9.58,16.49,9.58h59.5c6.68,0,12.7,2.34,15.25,5.93l3.8,5.35c2.54,3.59,8.57,5.93,15.25,5.93h169.6
							c6.68,0,12.7-2.34,15.25-5.93l3.8-5.35c2.54-3.59,8.57-5.93,15.25-5.93h59.51c9.11,0,16.49-4.29,16.49-9.58V61.01z"/>
					</g>
				</g>
				<g>
					<g class="st4">
						<rect x="307.72" y="44.48" class="st5" width="373.25" height="14.74"/>
					</g>
					<g>
						<rect x="306.87" y="44.06" class="st10" width="373.25" height="14.74"/>
					</g>
				</g>
			</g>
		</g>
	</g>
	<g>
		<g>
			<g class="st4">
				<polygon class="st5" points="1000.48,131.2 1000.48,147.61 1012.72,154.64 1012.72,268.27 1005.35,272.41 1005.35,284.77 
					1021.6,275.65 1021.64,275.65 1021.64,275.62 1021.64,263.26 1021.64,159.76 1021.64,143.35 				"/>
				<path class="st5" d="M982.55,532.63c-0.1,0.65-0.66,1.13-1.32,1.12c-0.66,0-1.21-0.48-1.32-1.12l-2.66-16.82h7.96L982.55,532.63
					z"/>
				<rect x="962" y="131.2" class="st5" width="38.49" height="233.79"/>
				<polygon class="st5" points="986.7,519.36 975.77,519.36 962,453.32 1000.48,453.32 				"/>
				<path class="st5" d="M988.13,109.11c0,3.81-3.08,6.89-6.89,6.89l0,0c-3.8,0-6.88-3.08-6.88-6.89v-15.8
					c0-3.8,3.08-6.88,6.88-6.88l0,0c3.81,0,6.89,3.08,6.89,6.88V109.11z"/>
				<path class="st5" d="M1005.35,125.93c0,2.91-2.36,5.27-5.27,5.27H962.4c-2.91,0-5.27-2.36-5.27-5.27v-2.43
					c0-2.91,2.36-5.27,5.27-5.27h37.68c2.91,0,5.27,2.36,5.27,5.27V125.93z"/>
				<path class="st5" d="M997.65,118.23h-32.82c0-5.15,4.17-9.32,9.32-9.32h14.19C993.48,108.91,997.65,113.08,997.65,118.23z"/>
				<path class="st5" d="M1000.48,338.7H962c0,0-11.56,101.95,3.25,130.22h31.98C1012.05,440.65,1000.48,338.7,1000.48,338.7z"/>
			</g>
			<g>
				<g>
					<polygon class="st11" points="999.63,130.77 999.63,147.18 1011.87,154.22 1011.87,267.85 1004.5,271.99 1004.5,284.35 
						1020.75,275.22 1020.79,275.22 1020.79,275.19 1020.79,262.83 1020.79,159.34 1020.79,142.93 					"/>
					<g>
						<path class="st12" d="M981.7,532.21c-0.1,0.65-0.66,1.13-1.32,1.12c-0.66,0-1.21-0.48-1.32-1.12l-2.66-16.82h7.96
							L981.7,532.21z"/>
						<rect x="961.15" y="130.77" class="st7" width="38.49" height="233.79"/>
						<polygon class="st7" points="985.85,518.93 974.92,518.93 961.15,452.89 999.63,452.89 						"/>
						<path class="st11" d="M987.27,108.68c0,3.81-3.08,6.89-6.89,6.89l0,0c-3.8,0-6.88-3.08-6.88-6.89v-15.8
							c0-3.8,3.08-6.88,6.88-6.88l0,0c3.81,0,6.89,3.08,6.89,6.88V108.68z"/>
						<path class="st10" d="M1004.5,125.51c0,2.91-2.36,5.27-5.27,5.27h-37.68c-2.91,0-5.27-2.36-5.27-5.27v-2.43
							c0-2.91,2.36-5.27,5.27-5.27h37.68c2.91,0,5.27,2.36,5.27,5.27V125.51z"/>
						<path class="st7" d="M996.8,117.8h-32.82c0-5.15,4.17-9.32,9.32-9.32h14.19C992.63,108.49,996.8,112.66,996.8,117.8z"/>
						<path class="st10" d="M999.63,338.27h-38.49c0,0-11.56,101.95,3.25,130.22h31.98C1011.2,440.23,999.63,338.27,999.63,338.27z"
							/>
					</g>
				</g>
			</g>
		</g>
	</g>
	<g>
		<g>
			<g class="st4">
				<rect x="874.11" y="168.78" class="st5" width="18.84" height="311.19"/>
				<path class="st5" d="M892.95,168.78h-18.84v-28.84c0-2.87,2.32-5.19,5.19-5.19h8.45c2.87,0,5.19,2.32,5.19,5.19V168.78z"/>
				<rect x="874.11" y="153.78" class="st5" width="18.84" height="14.99"/>
				<path class="st5" d="M884.58,532.84c-0.08,0.52-0.53,0.91-1.06,0.91s-0.97-0.39-1.06-0.91l-8.36-52.88h18.84L884.58,532.84z"/>
				<path class="st5" d="M884.59,532.84c-0.08,0.52-0.53,0.9-1.06,0.9c-0.52,0-0.97-0.38-1.05-0.9l-2.92-18.42h7.93L884.59,532.84z"
					/>
			</g>
			<g>
				<g>
					<rect x="873.26" y="168.35" class="st11" width="18.84" height="311.19"/>
					<path class="st10" d="M892.1,168.35h-18.84v-28.84c0-2.87,2.32-5.19,5.19-5.19h8.45c2.87,0,5.19,2.32,5.19,5.19V168.35z"/>
					<rect x="873.26" y="153.36" class="st7" width="18.84" height="14.99"/>
					<g>
						<path class="st6" d="M883.73,532.42c-0.08,0.52-0.53,0.91-1.06,0.91s-0.97-0.39-1.06-0.91l-8.36-52.88h18.84L883.73,532.42z"
							/>
					</g>
					<path class="st12" d="M883.74,532.42c-0.08,0.52-0.53,0.9-1.06,0.9c-0.52,0-0.97-0.38-1.05-0.9L878.71,514h7.93L883.74,532.42z
						"/>
				</g>
			</g>
		</g>
	</g>
</g>
</svg>
