<?xml version="1.0" encoding="utf-8"?>
<!-- Generator: Adobe Illustrator 24.2.3, SVG Export Plug-In . SVG Version: 6.00 Build 0)  -->
<svg version="1.1" id="レイヤー_1" xmlns="http://www.w3.org/2000/svg" xmlns:xlink="http://www.w3.org/1999/xlink" x="0px"
	 y="0px" viewBox="0 0 1172.27 572.7" style="enable-background:new 0 0 1172.27 572.7;" xml:space="preserve">
<style type="text/css">
	.st0{fill-rule:evenodd;clip-rule:evenodd;fill:#171819;}
	.st1{display:none;}
	.st2{display:inline;}
	.st3{fill:#FFFFFF;}
	.st4{fill-rule:evenodd;clip-rule:evenodd;fill:#FFFFFF;}
</style>
<g id="black_1_">
	<g>
		<rect id="要素_-_1_10_" x="189.57" y="387.28" class="st0" width="235.06" height="21.37"/>
		<g>
			<path d="M719.06,224.02c6.59,0,11.15-1.36,13.95-4.16c2.44-2.44,4.45-6.16,6.16-11.37c1.63-5,2.42-9.09,2.42-12.52
				c0-4.49-2.31-12.02-17.82-12.02c-4.16,0-10.07,1.67-14.63,9.61c-3.22,5.61-4.85,12.09-4.85,19.27
				C704.28,216.2,705.72,224.02,719.06,224.02z"/>
			<path d="M975.65,303.04c-6.19,5.29-12.5,10.57-18.73,15.7c-10.38,8.46-17.98,12.96-23.5,15.22c3.01-5.78,5.51-11.89,7.47-18.26
				c2.97-9.67,4.47-18.89,4.47-27.38c0-5.93-1.19-11.59-3.56-16.83c-2.02-4.48-5.4-9.72-10.3-15.96c2.47-3.5,5.1-7.25,7.87-11.22
				c4.03-5.77,5.98-10.64,5.98-14.89c0-2.29-0.85-7.8-8.74-9.44l-0.34-0.07l-13.44-0.57c-7.07,0-12.72,3.44-16.32,9.95
				c-3.2,5.78-4.82,12.15-4.82,18.94c0,1.23,0.27,2.85,1.29,4.56c-4.82,8.1-10.07,15.92-15.64,23.29
				c-5.41,7.22-12.11,15.21-20.03,23.87l-0.47,0.55l-2.95,2.57c-14.22,12.42-26.94,21.48-37.81,26.91
				c-10.59,5.3-21.2,7.98-31.55,7.98c-4.83,0-8.1-1.99-10.32-6.28c-1.52-2.89-2.36-6.76-2.53-11.52l3.13-1.34
				c15.76-6.45,26.9-12.13,34.08-17.37c14.01-10.21,21.11-22.44,21.11-36.36c0-16.31-9.37-25.29-26.39-25.29
				c-16.99,0-32.09,8.42-44.86,25.03c-7.98,10.37-13.43,21.81-16.35,34.16l-4.47,4.17c-5.47,5.1-11.01,10.09-16.43,14.79
				c-15.94,13.46-21.73,15.36-23.47,15.56c-0.37-0.61-1.3-2.77-1.3-8.98c0-7.2,1.17-15.9,3.48-25.85
				c2.35-10.14,6.41-23.87,12.06-40.81l4.64-13.92h-32.06l-1.07,2.71c-5.58,14.13-10.01,27.9-13.17,40.93
				c-0.74,3.06-1.39,6.04-1.97,8.96l-5.76,7.04c-2.96,3.62-5.72,6.16-8.19,7.55c-2.32,1.31-4.8,1.94-7.58,1.94
				c-4.85,0-10.49-3.38-16.78-10.06c3.77-8.37,6.8-16.84,9.02-25.22c2.48-9.35,3.74-17.53,3.74-24.32c0-7.43-4.78-10.08-9.25-10.08
				c-5.75,0-10.99,1.06-15.54,3.12c-4.32,1.89-7.88,7.83-11.88,19.84c-3.54,10.62-5.33,20.05-5.33,28.04v0.29l1,7.26
				c-3.99,10.91-8.33,19.61-12.9,25.87c-4.05,5.54-7.82,8.48-10.92,8.48c-3.56,0-5.68-7.29-5.68-19.51c0-11.77,1.82-25.1,5.43-39.7
				c0.91-3.99,3.49-13.5,7.68-28.26l1.67-5.87l-31.89,2.31l-0.89,2.72c-4.28,13.01-7.58,25.56-9.82,37.31
				c-0.92,4.81-1.64,9.61-2.19,14.37l-3.89,3.4c-14.22,12.42-26.94,21.48-37.81,26.91c-10.59,5.3-21.2,7.98-31.55,7.98
				c-4.83,0-8.1-1.99-10.32-6.28c-1.52-2.89-2.36-6.76-2.53-11.52l3.13-1.34c15.76-6.45,26.9-12.13,34.08-17.37
				c14.01-10.21,21.11-22.44,21.11-36.36c0-16.31-9.37-25.29-26.39-25.29c-11.91,0-22.88,4.15-32.77,12.34l0.6-0.71
				c-10.88,1.55-25.92-12.57-26.66-13.27l0.03-0.04l-2.76-2.48c-3.57-3.21-6.65-6.2-9.07-8.79c-0.99-1.11-2.02-2.3-3.09-3.58
				c6.25-18.86,9.42-34.37,9.42-46.11c0-4.5-0.68-7.33-2.21-9.21c-1.7-2.08-4.55-3.08-8.7-3.08c-8.94,0-11.95,0.88-13.58,1.66
				c-2.85,1.35-5.08,4.34-7.04,9.48c-4.75,13.3-7.16,25.7-7.16,36.83c0,2.11,0.21,4.29,0.63,6.47c0.32,1.68,0.77,3.3,1.34,4.83
				c-7.93,27.07-17.82,51.99-29.4,74.09c-16.59,31.49-24.58,33.94-26.63,33.94c-1.7,0-2.97-2.89-3.57-4.61
				c-1.58-4.49-2.38-11.27-2.38-20.15c0-7.01,0.64-16.73,1.91-28.87c1.27-12.16,2.65-22.09,4.08-29.45l7.98-38.82
				c0.08-0.34,0.74-2.64,4.92-16.65c2.14-7.01,3.23-13.29,3.23-18.67c0-5.36-2.9-7.7-4.63-8.62c-2.24-1.19-5.73-1.74-10.98-1.74
				c-6.86,0-11.47,1.41-14.09,4.31c-1.84,2.03-3.83,6.36-5.92,24.07c-1.42,12.06-7.22,29.85-17.23,52.85
				c-10.07,23.12-21.31,43.47-33.42,60.45c-16.21,22.51-25.05,25.87-28.88,25.87c-0.8,0-2.92,0-2.92-7.07
				c0-3.72,1.07-10.34,3.19-19.66c2.14-9.44,3.79-16.43,4.88-20.63l10-34.3c9.43-33.14,14.01-55.14,14.01-67.25
				c0-16.71-8.22-19.21-13.12-19.21c-5.94,0-13.9,3.61-24.32,11.02c-9.74,6.93-20.89,16.66-33.17,28.94l-1.87,1.87l7.85,23.53
				l9.23-8.07c6.3-5.4,12.09-9.91,17.19-13.4c1.68-1.15,3.02-2.02,4.08-2.67c-0.32,3.24-1.13,7.05-2.45,11.39l-20.18,71.3
				c-4.15,14.15-6.25,27.12-6.25,38.53c0,10.46,2.51,19.22,7.45,26.02c5.25,7.22,12.09,10.89,20.32,10.89
				c10.66,0,21.87-5.41,33.33-16.08c8.33-7.76,17.21-18.92,26.4-33.17c2.81-4.38,5.55-8.87,8.19-13.43
				c-0.02,1.58-0.03,3.35-0.03,5.32c0,13.49,1.56,25.01,4.65,34.29c5.24,15.31,14.23,23.08,26.72,23.08
				c11.27,0,22.81-7.26,34.34-21.62c8.46-10.85,17.28-26.18,26.23-45.57c5.18-11.28,11.26-26.26,18.1-44.54l1.02-2.75
				c0.01,0.01,0.03,0.04,0.05,0.06l-0.07,0.03c4,5.64,30.97,20.23,34.06,21.88c-9.68,14.84-14.58,31.65-14.58,50.07
				c0,10.92,2.78,20.85,8.26,29.52c5.88,9.3,14.58,14.02,25.87,14.02c27.06,0,55.23-10.26,83.74-30.48
				c1.26,6.77,3.51,12.56,6.75,17.28c5.61,8.21,13.4,12.37,23.16,12.37c18.3,0,33.79-12.07,46.09-35.91
				c9.12,7.87,18.8,11.85,28.85,11.85c6.82,0,13.1-1.6,18.71-4.74c0.28,4.81,0.77,8.67,1.46,11.66
				c3.37,14.62,11.49,17.69,17.71,17.69c8.98,0,19.46-3.63,32.04-11.1c9.18-5.44,17.32-11.51,24.26-18.07
				c1.37,5.49,3.56,10.66,6.58,15.43c5.88,9.3,14.58,14.02,25.87,14.02c27.52,0,48.85-5.46,77.85-26.36c0,0,17.96-14.59,22.41-19.33
				c4.45-4.74,8.28-9.13,11.46-13.14c4.62-5.73,10.93-14.47,18.79-26.03c0.09,0.32,0.17,0.64,0.23,0.96
				c0.5,2.48,0.75,5.08,0.75,7.73c0,6.64-2.19,15.81-6.5,27.25c-4.65,12.34-7.44,14.79-8.05,15.2c-1.3-0.03-3.71-0.24-8.06-1.03
				c-4.37-0.79-7.69-1.18-10.16-1.18c-2.42,0-6.84,0.92-9.35,7.09c-1.42,3.5-2.11,8.36-2.11,14.88c0,4.71,1.35,8.13,4.03,10.17
				c2.39,1.83,5.98,2.68,11.31,2.68c5.84,0,10.88-0.51,14.98-1.5c3.43-0.84,6.67-2.04,9.65-3.58c5.96,2.3,10.86,3.43,14.92,3.43
				c6.28,0,13.3-2.06,21.46-6.29c7.63-3.95,17.44-10.3,29.32-18.98l5.75-4.6v-34.82L975.65,303.04z M796.17,275.45
				c5.39-6.42,10.52-9.67,15.25-9.67c2.09,0,2.09,0.31,2.09,1.81c0,4.17-2.92,8.69-8.68,13.43c-4.76,3.92-10.83,7.54-18.1,10.81
				C788.97,285.74,792.12,280.26,796.17,275.45z M480.95,275.45c5.39-6.42,10.52-9.67,15.25-9.67c2.09,0,2.09,0.31,2.09,1.81
				c0,4.17-2.92,8.69-8.68,13.43c-4.76,3.92-10.83,7.54-18.1,10.81C473.75,285.74,476.91,280.26,480.95,275.45z"/>
		</g>
	</g>
</g>
<g id="wihite" class="st1">
	<g class="st2">
		<path id="要素_-_3_1_" class="st3" d="M1162.27,562.7H10V10h1152.27V562.7z M31.37,541.68H1140.9V31.02H31.37V541.68z"/>
	</g>
	<g class="st2">
		<rect id="要素_-_1_1_" x="189.57" y="387.28" class="st4" width="235.06" height="21.37"/>
		<g>
			<path class="st3" d="M719.06,224.02c6.59,0,11.15-1.36,13.95-4.16c2.44-2.44,4.45-6.16,6.16-11.37c1.63-5,2.42-9.09,2.42-12.52
				c0-4.49-2.31-12.02-17.82-12.02c-4.16,0-10.07,1.67-14.63,9.61c-3.22,5.61-4.85,12.09-4.85,19.27
				C704.28,216.2,705.72,224.02,719.06,224.02z"/>
			<path class="st3" d="M975.65,303.04c-6.19,5.29-12.5,10.57-18.73,15.7c-10.38,8.46-17.98,12.96-23.5,15.22
				c3.01-5.78,5.51-11.89,7.47-18.26c2.97-9.67,4.47-18.89,4.47-27.38c0-5.93-1.19-11.59-3.56-16.83c-2.02-4.48-5.4-9.72-10.3-15.96
				c2.47-3.5,5.1-7.25,7.87-11.22c4.03-5.77,5.98-10.64,5.98-14.89c0-2.29-0.85-7.8-8.74-9.44l-0.34-0.07l-13.44-0.57
				c-7.07,0-12.72,3.44-16.32,9.95c-3.2,5.78-4.82,12.15-4.82,18.94c0,1.23,0.27,2.85,1.29,4.56c-4.82,8.1-10.07,15.92-15.64,23.29
				c-5.41,7.22-12.11,15.21-20.03,23.87l-0.47,0.55l-2.95,2.57c-14.22,12.42-26.94,21.48-37.81,26.91
				c-10.59,5.3-21.2,7.98-31.55,7.98c-4.83,0-8.1-1.99-10.32-6.28c-1.52-2.89-2.36-6.76-2.53-11.52l3.13-1.34
				c15.76-6.45,26.9-12.13,34.08-17.37c14.01-10.21,21.11-22.44,21.11-36.36c0-16.31-9.37-25.29-26.39-25.29
				c-16.99,0-32.09,8.42-44.86,25.03c-7.98,10.37-13.43,21.81-16.35,34.16l-4.47,4.17c-5.47,5.1-11.01,10.09-16.43,14.79
				c-15.94,13.46-21.73,15.36-23.47,15.56c-0.37-0.61-1.3-2.77-1.3-8.98c0-7.2,1.17-15.9,3.48-25.85
				c2.35-10.14,6.41-23.87,12.06-40.81l4.64-13.92h-32.06l-1.07,2.71c-5.58,14.13-10.01,27.9-13.17,40.93
				c-0.74,3.06-1.39,6.04-1.97,8.96l-5.76,7.04c-2.96,3.62-5.72,6.16-8.19,7.55c-2.32,1.31-4.8,1.94-7.58,1.94
				c-4.85,0-10.49-3.38-16.78-10.06c3.77-8.37,6.8-16.84,9.02-25.22c2.48-9.35,3.74-17.53,3.74-24.32c0-7.43-4.78-10.08-9.25-10.08
				c-5.75,0-10.99,1.06-15.54,3.12c-4.32,1.89-7.88,7.83-11.88,19.84c-3.54,10.62-5.33,20.05-5.33,28.04v0.29l1,7.26
				c-3.99,10.91-8.33,19.61-12.9,25.87c-4.05,5.54-7.82,8.48-10.92,8.48c-3.56,0-5.68-7.29-5.68-19.51c0-11.77,1.82-25.1,5.43-39.7
				c0.91-3.99,3.49-13.5,7.68-28.26l1.67-5.87l-31.89,2.31l-0.89,2.72c-4.28,13.01-7.58,25.56-9.82,37.31
				c-0.92,4.81-1.64,9.61-2.19,14.37l-3.89,3.4c-14.22,12.42-26.94,21.48-37.81,26.91c-10.59,5.3-21.2,7.98-31.55,7.98
				c-4.83,0-8.1-1.99-10.32-6.28c-1.52-2.89-2.36-6.76-2.53-11.52l3.13-1.34c15.76-6.45,26.9-12.13,34.08-17.37
				c14.01-10.21,21.11-22.44,21.11-36.36c0-16.31-9.37-25.29-26.39-25.29c-11.91,0-22.88,4.15-32.77,12.34l0.6-0.71
				c-10.88,1.55-25.92-12.57-26.66-13.27l0.03-0.04l-2.76-2.48c-3.57-3.21-6.65-6.2-9.07-8.79c-0.99-1.11-2.02-2.3-3.09-3.58
				c6.25-18.86,9.42-34.37,9.42-46.11c0-4.5-0.68-7.33-2.21-9.21c-1.7-2.08-4.55-3.08-8.7-3.08c-8.94,0-11.95,0.88-13.58,1.66
				c-2.85,1.35-5.08,4.34-7.04,9.48c-4.75,13.3-7.16,25.7-7.16,36.83c0,2.11,0.21,4.29,0.63,6.47c0.32,1.68,0.77,3.3,1.34,4.83
				c-7.93,27.07-17.82,51.99-29.4,74.09c-16.59,31.49-24.58,33.94-26.63,33.94c-1.7,0-2.97-2.89-3.57-4.61
				c-1.58-4.49-2.38-11.27-2.38-20.15c0-7.01,0.64-16.73,1.91-28.87c1.27-12.16,2.65-22.09,4.08-29.45l7.98-38.82
				c0.08-0.34,0.74-2.64,4.92-16.65c2.14-7.01,3.23-13.29,3.23-18.67c0-5.36-2.9-7.7-4.63-8.62c-2.24-1.19-5.73-1.74-10.98-1.74
				c-6.86,0-11.47,1.41-14.09,4.31c-1.84,2.03-3.83,6.36-5.92,24.07c-1.42,12.06-7.22,29.85-17.23,52.85
				c-10.07,23.12-21.31,43.47-33.42,60.45c-16.21,22.51-25.05,25.87-28.88,25.87c-0.8,0-2.92,0-2.92-7.07
				c0-3.72,1.07-10.34,3.19-19.66c2.14-9.44,3.79-16.43,4.88-20.63l10-34.3c9.43-33.14,14.01-55.14,14.01-67.25
				c0-16.71-8.22-19.21-13.12-19.21c-5.94,0-13.9,3.61-24.32,11.02c-9.74,6.93-20.89,16.66-33.17,28.94l-1.87,1.87l7.85,23.53
				l9.23-8.07c6.3-5.4,12.09-9.91,17.19-13.4c1.68-1.15,3.02-2.02,4.08-2.67c-0.32,3.24-1.13,7.05-2.45,11.39l-20.18,71.3
				c-4.15,14.15-6.25,27.12-6.25,38.53c0,10.46,2.51,19.22,7.45,26.02c5.25,7.22,12.09,10.89,20.32,10.89
				c10.66,0,21.87-5.41,33.33-16.08c8.33-7.76,17.21-18.92,26.4-33.17c2.81-4.38,5.55-8.87,8.19-13.43
				c-0.02,1.58-0.03,3.35-0.03,5.32c0,13.49,1.56,25.01,4.65,34.29c5.24,15.31,14.23,23.08,26.72,23.08
				c11.27,0,22.81-7.26,34.34-21.62c8.46-10.85,17.28-26.18,26.23-45.57c5.18-11.28,11.26-26.26,18.1-44.54l1.02-2.75
				c0.01,0.01,0.03,0.04,0.05,0.06l-0.07,0.03c4,5.64,30.97,20.23,34.06,21.88c-9.68,14.84-14.58,31.65-14.58,50.07
				c0,10.92,2.78,20.85,8.26,29.52c5.88,9.3,14.58,14.02,25.87,14.02c27.06,0,55.23-10.26,83.74-30.48
				c1.26,6.77,3.51,12.56,6.75,17.28c5.61,8.21,13.4,12.37,23.16,12.37c18.3,0,33.79-12.07,46.09-35.91
				c9.12,7.87,18.8,11.85,28.85,11.85c6.82,0,13.1-1.6,18.71-4.74c0.28,4.81,0.77,8.67,1.46,11.66
				c3.37,14.62,11.49,17.69,17.71,17.69c8.98,0,19.46-3.63,32.04-11.1c9.18-5.44,17.32-11.51,24.26-18.07
				c1.37,5.49,3.56,10.66,6.58,15.43c5.88,9.3,14.58,14.02,25.87,14.02c27.52,0,48.85-5.46,77.85-26.36c0,0,17.96-14.59,22.41-19.33
				c4.45-4.74,8.28-9.13,11.46-13.14c4.62-5.73,10.93-14.47,18.79-26.03c0.09,0.32,0.17,0.64,0.23,0.96
				c0.5,2.48,0.75,5.08,0.75,7.73c0,6.64-2.19,15.81-6.5,27.25c-4.65,12.34-7.44,14.79-8.05,15.2c-1.3-0.03-3.71-0.24-8.06-1.03
				c-4.37-0.79-7.69-1.18-10.16-1.18c-2.42,0-6.84,0.92-9.35,7.09c-1.42,3.5-2.11,8.36-2.11,14.88c0,4.71,1.35,8.13,4.03,10.17
				c2.39,1.83,5.98,2.68,11.31,2.68c5.84,0,10.88-0.51,14.98-1.5c3.43-0.84,6.67-2.04,9.65-3.58c5.96,2.3,10.86,3.43,14.92,3.43
				c6.28,0,13.3-2.06,21.46-6.29c7.63-3.95,17.44-10.3,29.32-18.98l5.75-4.6v-34.82L975.65,303.04z M796.17,275.45
				c5.39-6.42,10.52-9.67,15.25-9.67c2.09,0,2.09,0.31,2.09,1.81c0,4.17-2.92,8.69-8.68,13.43c-4.76,3.92-10.83,7.54-18.1,10.81
				C788.97,285.74,792.12,280.26,796.17,275.45z M480.95,275.45c5.39-6.42,10.52-9.67,15.25-9.67c2.09,0,2.09,0.31,2.09,1.81
				c0,4.17-2.92,8.69-8.68,13.43c-4.76,3.92-10.83,7.54-18.1,10.81C473.75,285.74,476.91,280.26,480.95,275.45z"/>
		</g>
	</g>
</g>
</svg>
